<?xml version="1.0" encoding="utf-8"?>
<!-- Generator: Adobe Illustrator 16.0.4, SVG Export Plug-In . SVG Version: 6.00 Build 0)  -->
<!DOCTYPE svg PUBLIC "-//W3C//DTD SVG 1.1//EN" "http://www.w3.org/Graphics/SVG/1.1/DTD/svg11.dtd">
<svg version="1.1" id="Layer_1" xmlns="http://www.w3.org/2000/svg" xmlns:xlink="http://www.w3.org/1999/xlink" x="0px" y="0px"
	 width="36px" height="36.036px" viewBox="0 0 36 36.036" enable-background="new 0 0 36 36.036" xml:space="preserve">
<g>
	<path fill="#FFFFFF" d="M27.65,28.391l0.002,0.002c0.334-0.316,0.709-0.701,1.089-1.139c0,0,0.26-0.312,0.403-0.487
		c0.135-0.165,0.256-0.339,0.377-0.513c0.06-0.082,0.11-0.156,0.162-0.229c0.008-0.013,0.018-0.025,0.024-0.039
		c0.114-0.168,0.194-0.298,0.243-0.378c1.096-1.739,1.797-3.7,2.057-5.765c-0.012-0.055-0.044-0.127-0.136-0.151H20.223
		c-0.031,0.009-0.068,0.024-0.092,0.074c0,0-0.029,0.069,0.01,0.131l6.825,8.886c0.058,0.061,0.109,0.065,0.109,0.065
		c0.057,0.01,0.102-0.022,0.112-0.032C27.328,28.693,27.482,28.547,27.65,28.391L27.65,28.391"/>
	<path fill="#FFFFFF" d="M34.207,3.599c-6.876-2.914-14.475-3.498-15.872-3.583C18.234,0.005,18.132,0,18.03,0h-0.06
		c-0.101,0-0.202,0.005-0.302,0.016C16.278,0.1,8.675,0.683,1.793,3.599C0.706,4.06,0,5.126,0,6.306v12.021
		c0,0.073,0.003,0.146,0.008,0.218c0.13,4.674,2.037,9.047,5.379,12.332c3.386,3.326,7.865,5.158,12.613,5.158
		s9.227-1.832,12.613-5.158c3.342-3.283,5.248-7.656,5.379-12.332C35.997,18.474,36,18.4,36,18.327V6.306
		C36,5.126,35.293,4.06,34.207,3.599 M33.693,18.327c0,0.031-0.002,0.062-0.006,0.093c-0.1,4.139-1.777,8.014-4.735,10.918
		c-0.021,0.021-0.044,0.041-0.063,0.062h-0.005c-0.438,0.435-0.965,0.91-1.495,1.289c-2.734,2.069-6.056,3.192-9.541,3.192
		c-3.457,0-6.752-1.106-9.475-3.146c-0.681-0.475-1.363-1.123-1.865-1.641l-0.003,0.003c-0.169-0.175-0.333-0.353-0.493-0.533
		c-0.048-0.054-0.091-0.101-0.127-0.144c-0.104-0.117-0.164-0.188-0.164-0.188v-0.001c-2.319-2.75-3.626-6.182-3.712-9.813
		c-0.003-0.031-0.006-0.062-0.006-0.093V6.306c0-0.315,0.189-0.599,0.478-0.722c6.682-2.831,14.101-3.355,15.226-3.421
		c0.046-0.007,0.093-0.01,0.141-0.008c0.048-0.002,0.096,0.001,0.143,0.008c1.134,0.066,8.547,0.592,15.224,3.421
		c0.289,0.123,0.479,0.407,0.479,0.722V18.327L33.693,18.327z"/>
	<path fill="#FFFFFF" d="M18.047,19.831L18.047,19.831c-0.032-0.056-0.102-0.054-0.102-0.054c-0.053,0-0.084,0.022-0.101,0.042
		l-7.706,10.028c-0.048,0.065-0.041,0.118-0.041,0.118c0.002,0.041,0.026,0.072,0.043,0.09c2.28,1.468,4.936,2.258,7.708,2.258
		c2.813,0,5.507-0.812,7.81-2.324l0,0c0,0,0.057-0.043,0.06-0.105c0,0,0.009-0.057-0.046-0.127L18.047,19.831z"/>
	<path fill="#FFFFFF" d="M6.227,26.329c0.135,0.186,0.272,0.362,0.412,0.534c0.426,0.531,0.996,1.167,1.71,1.808
		c0.099,0.094,0.192,0.174,0.278,0.25c0.019,0.015,0.058,0.033,0.103,0.027c0,0,0.059-0.004,0.117-0.076l6.891-8.968
		c0.042-0.062,0.011-0.135,0.011-0.135c-0.022-0.048-0.059-0.067-0.09-0.074H3.832c-0.107,0.029-0.134,0.122-0.14,0.179
		c0.261,2.041,0.954,3.979,2.033,5.707C5.743,25.609,5.768,25.65,5.8,25.7c0.011,0.018,0.022,0.035,0.033,0.053
		c0.054,0.086,0.125,0.191,0.21,0.314c0.016,0.023,0.031,0.049,0.048,0.071c0.02,0.028,0.04,0.056,0.059,0.083
		C6.175,26.256,6.201,26.293,6.227,26.329"/>
	<path fill="#FFFFFF" d="M18.048,18.13h0.731h0.877v-0.002h12.345c0.136-0.052,0.123-0.214,0.123-0.214l0.001-0.001V14.3V6.964
		c-0.005-0.052-0.033-0.139-0.143-0.191C25.59,4.219,18.695,3.772,17.849,3.726C17,3.772,10.092,4.22,3.692,6.782
		c-0.079,0.044-0.11,0.106-0.121,0.155v6.811H3.562v2.77h0.009v1.509c0.017,0.04,0.049,0.079,0.105,0.101H16.19v0.002h0.911h0.733
		H18.048z M24.012,14.372c0.006-0.227,0.229-0.21,0.229-0.21l0.004-0.004h1.747c0.188-0.027,0.173-0.226,0.173-0.226l0.004-0.004
		V9.512c0.006-0.066,0.043-0.186,0.208-0.188h1.203c0.158,0.003,0.199,0.113,0.208,0.18v4.425l0.001,0.002
		c0,0-0.016,0.199,0.173,0.226h1.761l0.004,0.004c0,0,0.174-0.013,0.219,0.137v1.349c-0.024,0.082-0.088,0.115-0.141,0.128h-5.642
		c-0.065-0.016-0.147-0.064-0.151-0.202V14.372z M11.539,10.673c-0.005,0.226-0.23,0.209-0.23,0.209l-0.003,0.003H9.559
		c-0.188,0.027-0.173,0.227-0.173,0.227l-0.004,0.004v4.415c-0.006,0.065-0.043,0.185-0.208,0.188H7.969
		c-0.158-0.003-0.198-0.113-0.206-0.179v-4.426l-0.002-0.001c0,0,0.015-0.2-0.172-0.227h-1.76l-0.003-0.003
		c0,0-0.175,0.013-0.22-0.137V9.397C5.631,9.315,5.694,9.28,5.747,9.269h5.641c0.066,0.015,0.148,0.064,0.151,0.202V10.673z
		 M17.435,11.447h-1.9c-0.169,0.003-0.21-0.112-0.219-0.18v-1.261c0.008-0.064,0.046-0.166,0.188-0.177h1.356
		c0.082-0.005,0.256-0.036,0.209-0.208l0,0l-0.397-1.336c-0.058-0.168-0.178-0.194-0.226-0.198h-2.008
		c-0.137-0.014-0.174-0.113-0.182-0.177V6.648c0.009-0.07,0.05-0.188,0.227-0.181h5.332c0.213-0.009,0.229,0.165,0.229,0.216v0.01
		c0,0.002,0,0.005,0,0.005V6.7v1.158v0.001c0,0,0,0.003,0,0.004v0.011c0,0.047-0.017,0.195-0.185,0.212h-1.466
		c-0.053,0.005-0.152,0.038-0.1,0.208l-0.002-0.001l0.396,1.335c0.047,0.161,0.16,0.194,0.215,0.2h2.012
		c0.134,0.01,0.176,0.102,0.188,0.167v1.283c-0.013,0.069-0.058,0.172-0.219,0.169h-1.48c-0.047,0.001-0.168,0.021-0.11,0.209l0,0
		l1.153,3.886l-0.002,0.002c0,0,0.005,0.005,0.008,0.015l0.01,0.035c0.018,0.062,0.02,0.163-0.107,0.178H19.12
		c-0.181,0.007-0.252-0.116-0.278-0.186l-1.169-3.935C17.611,11.466,17.474,11.448,17.435,11.447"/>
</g>
</svg>
